<svg xmlns="http://www.w3.org/2000/svg" viewBox="0 0 1200 150" role="img" aria-label="Now">
  <defs>
    <linearGradient id="card" x1="0" y1="0" x2="0" y2="1">
      <stop offset="0" stop-color="#101826"/>
      <stop offset="1" stop-color="#0a111b"/>
    </linearGradient>
  </defs>
  <rect width="1200" height="150" fill="#070b12"/>

  <!-- 01 -->
  <rect x="8" y="10" width="286" height="130" rx="10" fill="url(#card)" stroke="#1e3a4c"/>
  <rect x="8" y="10" width="4" height="130" rx="2" fill="#5eead4"/>
  <text x="28" y="42" fill="#5eead4" font-family="ui-monospace, Menlo, monospace" font-size="11" letter-spacing="3">01  ·  NOW</text>
  <text x="28" y="78" fill="#f8fafc" font-family="ui-sans-serif, system-ui, sans-serif" font-size="22" font-weight="700">iOS @ WTW</text>
  <text x="28" y="106" fill="#8ba3b7" font-family="ui-sans-serif, system-ui, sans-serif" font-size="13">June 2025 ’ present</text>

  <!-- 02 -->
  <rect x="306" y="10" width="286" height="130" rx="10" fill="url(#card)" stroke="#1e3a4c"/>
  <rect x="306" y="10" width="4" height="130" rx="2" fill="#38bdf8"/>
  <text x="326" y="42" fill="#38bdf8" font-family="ui-monospace, Menlo, monospace" font-size="11" letter-spacing="3">02  ·  BUILD</text>
  <text x="326" y="78" fill="#f8fafc" font-family="ui-sans-serif, system-ui, sans-serif" font-size="22" font-weight="700">ORBITALIS</text>
  <text x="326" y="106" fill="#8ba3b7" font-family="ui-sans-serif, system-ui, sans-serif" font-size="13">Live 3D Earth + satellites</text>

  <!-- 03 -->
  <rect x="604" y="10" width="286" height="130" rx="10" fill="url(#card)" stroke="#1e3a4c"/>
  <rect x="604" y="10" width="4" height="130" rx="2" fill="#a78bfa"/>
  <text x="624" y="42" fill="#a78bfa" font-family="ui-monospace, Menlo, monospace" font-size="11" letter-spacing="3">03  ·  VISION</text>
  <text x="624" y="78" fill="#f8fafc" font-family="ui-sans-serif, system-ui, sans-serif" font-size="22" font-weight="700">YOLO v7 / v8</text>
  <text x="624" y="106" fill="#8ba3b7" font-family="ui-sans-serif, system-ui, sans-serif" font-size="13">Detection that leaves the lab</text>

  <!-- 04 -->
  <rect x="902" y="10" width="290" height="130" rx="10" fill="url(#card)" stroke="#1e3a4c"/>
  <rect x="902" y="10" width="4" height="130" rx="2" fill="#fbbf24"/>
  <text x="922" y="42" fill="#fbbf24" font-family="ui-monospace, Menlo, monospace" font-size="11" letter-spacing="3">04  ·  FLIGHT</text>
  <text x="922" y="78" fill="#f8fafc" font-family="ui-sans-serif, system-ui, sans-serif" font-size="22" font-weight="700">Pixhawk</text>
  <text x="922" y="106" fill="#8ba3b7" font-family="ui-sans-serif, system-ui, sans-serif" font-size="13">Airframes I assemble &amp; tune</text>
</svg>
